<svg width="26" height="18" viewBox="0 0 26 18" fill="none" xmlns="http://www.w3.org/2000/svg">
<path fill-rule="evenodd" clip-rule="evenodd" d="M0.837607 0C1.3002 0 1.67521 0.400086 1.67521 0.893617V17.1064C1.67521 17.5999 1.3002 18 0.837607 18C0.375009 18 0 17.5999 0 17.1064V0.893617C0 0.400086 0.375009 0 0.837607 0ZM4.90598 0C5.36858 0 5.74359 0.400086 5.74359 0.893617V17.1064C5.74359 17.5999 5.36858 18 4.90598 18C4.44339 18 4.06838 17.5999 4.06838 17.1064V0.893617C4.06838 0.400086 4.44339 0 4.90598 0ZM9.93162 2.53621V16.2128H12.3248V12.1941C12.62 12.367 12.9968 12.5 13.4468 12.5H14V16.8511C14 17.4856 13.5178 18 12.9231 18H9.33333C8.72658 18 8.25641 17.4699 8.25641 16.8482V1.3651C8.25641 0.464709 9.19429 -0.101539 9.9188 0.39861L13.5077 2.87616C13.813 3.08688 14 3.44946 14 3.84103V6.5H13.4468C12.9968 6.5 12.62 6.63296 12.3248 6.80589V4.18828L9.93162 2.53621ZM13 9.5C13 10.0523 13.2 10.5 13.4468 10.5H14H16.5V13.5532C16.5 13.8 16.9477 14 17.5 14C18.0523 14 18.5 13.8 18.5 13.5532V10.5H21.5532C21.8 10.5 22 10.0523 22 9.5C22 8.94772 21.8 8.5 21.5532 8.5H18.5V5.44681C18.5 5.20004 18.0523 5 17.5 5C16.9477 5 16.5 5.20004 16.5 5.44681V8.5H14H13.4468C13.2 8.5 13 8.94771 13 9.5Z" fill="white"/>
</svg>
