<svg width="15" height="15" viewBox="0 0 15 15" fill="none" xmlns="http://www.w3.org/2000/svg">
<path fill-rule="evenodd" clip-rule="evenodd" d="M1.88862 0.324035C1.45657 -0.108012 0.756083 -0.108012 0.324036 0.324035C-0.108011 0.756082 -0.108013 1.45657 0.324034 1.88861L5.75471 7.31929L0.324038 12.75C-0.108009 13.182 -0.108009 13.8825 0.324038 14.3145C0.756085 14.7466 1.45657 14.7466 1.88862 14.3145L7.31929 8.88387L12.75 14.3145C13.182 14.7466 13.8825 14.7466 14.3145 14.3145C14.7466 13.8825 14.7466 13.182 14.3145 12.75L8.88387 7.31929L14.3145 1.88863C14.7466 1.45658 14.7466 0.756092 14.3145 0.324045C13.8825 -0.108002 13.182 -0.108004 12.75 0.324043L7.31929 5.75471L1.88862 0.324035Z" fill="white"/>
</svg>
