<svg width="20" height="17" viewBox="0 0 20 17" fill="none" xmlns="http://www.w3.org/2000/svg">
<mask id="path-1-inside-1_70_52" fill="white">
<path fill-rule="evenodd" clip-rule="evenodd" d="M1.12142 8.63961C1.28389 8.84583 1.46152 9.03956 1.65263 9.21911L8.09971 16.2523C8.8973 17.1224 10.271 17.1161 11.0606 16.2388L17.9089 8.62951L17.8988 8.62763C18.674 7.71412 19.1417 6.53135 19.1417 5.23935C19.1417 2.34574 16.7959 0 13.9023 0C12.0669 0 10.4518 0.943814 9.51612 2.3726C8.56693 1.03408 7.00516 0.16054 5.23935 0.16054C2.34574 0.16054 0 2.50628 0 5.39989C0 6.61822 0.415838 7.73942 1.11332 8.6293L1.11217 8.62951L1.12142 8.63961Z"/>
</mask>
<path d="M1.12142 8.63961L2.69245 7.40192L2.6462 7.34322L2.59571 7.28813L1.12142 8.63961ZM1.65263 9.21911L3.12694 7.86766L3.07648 7.81261L3.02206 7.76148L1.65263 9.21911ZM8.09971 16.2523L9.57402 14.9008L9.57402 14.9008L8.09971 16.2523ZM11.0606 16.2388L12.5472 17.5767L12.5472 17.5767L11.0606 16.2388ZM17.9089 8.62951L19.3955 9.96744L21.7842 7.31332L18.2732 6.66296L17.9089 8.62951ZM17.8988 8.62763L16.3739 7.33352L14.1402 9.96545L17.5345 10.5942L17.8988 8.62763ZM9.51612 2.3726L7.88468 3.5295L9.58181 5.92274L11.1892 3.46835L9.51612 2.3726ZM1.11332 8.6293L1.47049 10.5972L4.73275 10.0051L2.68743 7.39553L1.11332 8.6293ZM1.11217 8.62951L0.755003 6.66166L-2.81154 7.30899L-0.362119 9.98099L1.11217 8.62951ZM-0.449608 9.87729C-0.225421 10.1619 0.0196126 10.4291 0.283205 10.6767L3.02206 7.76148C2.90343 7.65003 2.7932 7.52981 2.69245 7.40192L-0.449608 9.87729ZM9.57402 14.9008L3.12694 7.86766L0.178324 10.5706L6.6254 17.6037L9.57402 14.9008ZM9.57402 14.9008L9.57402 14.9008L6.6254 17.6037C8.22058 19.3439 10.968 19.3314 12.5472 17.5767L9.57402 14.9008ZM16.4223 7.29158L9.57402 14.9008L12.5472 17.5767L19.3955 9.96744L16.4223 7.29158ZM17.5345 10.5942L17.5446 10.5961L18.2732 6.66296L18.263 6.66108L17.5345 10.5942ZM19.4236 9.92175C20.4941 8.6604 21.1417 7.02293 21.1417 5.23935H17.1417C17.1417 6.03977 16.8539 6.76784 16.3739 7.33352L19.4236 9.92175ZM21.1417 5.23935C21.1417 1.24117 17.9005 -2 13.9023 -2V2C15.6914 2 17.1417 3.45031 17.1417 5.23935H21.1417ZM13.9023 -2C11.3642 -2 9.13258 -0.692242 7.843 1.27684L11.1892 3.46835C11.7711 2.57987 12.7695 2 13.9023 2V-2ZM11.1476 1.21569C9.83945 -0.628956 7.68082 -1.83946 5.23935 -1.83946V2.16054C6.32949 2.16054 7.29441 2.69712 7.88468 3.5295L11.1476 1.21569ZM5.23935 -1.83946C1.24117 -1.83946 -2 1.40171 -2 5.39989H2C2 3.61085 3.45031 2.16054 5.23935 2.16054V-1.83946ZM-2 5.39989C-2 7.08121 -1.42438 8.63367 -0.460783 9.86307L2.68743 7.39553C2.25605 6.84516 2 6.15522 2 5.39989H-2ZM1.46933 10.5974L1.47049 10.5972L0.756159 6.66145L0.755003 6.66166L1.46933 10.5974ZM2.59571 7.28813L2.58645 7.27804L-0.362119 9.98099L-0.352865 9.99108L2.59571 7.28813Z" fill="white" mask="url(#path-1-inside-1_70_52)"/>
</svg>
