<svg width="21" height="19" viewBox="0 0 21 19" fill="none" xmlns="http://www.w3.org/2000/svg">
<path fill-rule="evenodd" clip-rule="evenodd" d="M1.85029 4.158C1.85877 3.01308 2.68386 2.08791 3.70044 2.08791H17.2996C18.3214 2.08791 19.1498 3.0227 19.1498 4.17582V4.18139L11.7151 8.74107C11.183 9.06737 10.5432 9.07922 10.0019 8.77281L1.85029 4.158ZM1.85022 6.49388V14.8242C1.85022 15.9773 2.67859 16.9121 3.70044 16.9121H17.2996C18.3214 16.9121 19.1498 15.9773 19.1498 14.8242V6.55774L12.5986 10.5756C11.5345 11.2282 10.2548 11.2519 9.17228 10.639L1.85022 6.49388ZM3.70044 0C1.65674 0 0 1.86958 0 4.17582V14.8242C0 17.1304 1.65674 19 3.70044 19H17.2996C19.3433 19 21 17.1304 21 14.8242V4.17582C21 1.86958 19.3433 0 17.2996 0H3.70044Z" fill="white"/>
</svg>
